#Comment line ignore any data following # character 
#Hierarchical Translation and Rotation (.htr) file 
[Header]	
#Header keywords are followed by a single value 
FileType HTR		#Single word string
DataType HTRS		#Translation followed by rotation and scale data
FileVersion 1		#integer
NumSegments 64		#integer
NumFrames 3		#integer
DataFrameRate 30		#integer, data frame rate in this file
EulerRotationOrder ZYX
CalibrationUnits mm
RotationUnits Degrees
GlobalAxisofGravity Y
BoneLengthAxis Y
ScaleFactor 1.00
[SegmentNames&Hierarchy]
#CHILD	PARENT
Pinger_Root GLOBAL
Pelvis Pinger_Root
L_Hip Pelvis
R_Hip Pelvis
Rear_Leg01 Pelvis
Spine1 Pelvis
L_Leg01 L_Hip
L_Leg02 L_Leg01
L_Leg03 L_Leg02
L_Foot L_Leg03
L_Toe1_01 L_Foot
L_Toe2_01 L_Foot
L_Toe3_01 L_Foot
planeAlignerLeft L_Foot
L_Toe1_02 L_Toe1_01
L_Toe1_03 L_Toe1_02
L_Toe2_02 L_Toe2_01
L_Toe2_03 L_Toe2_02
L_Toe3_02 L_Toe3_01
L_Toe3_03 L_Toe3_02
planeLockWeightLeft planeAlignerLeft
R_Leg01 R_Hip
R_Leg02 R_Leg01
R_Leg03 R_Leg02
R_Foot R_Leg03
planeAlignerRight R_Foot
R_Toe1_01 R_Foot
R_Toe2_01 R_Foot
R_Toe3_01 R_Foot
planeLockWeightRight planeAlignerRight
R_Toe1_02 R_Toe1_01
R_Toe1_03 R_Toe1_02
R_Toe2_02 R_Toe2_01
R_Toe2_03 R_Toe2_02
R_Toe3_02 R_Toe3_01
R_Toe3_03 R_Toe3_02
Rear_Leg02 Rear_Leg01
Rear_Leg03 Rear_Leg02
Rear_Leg04 Rear_Leg03
Rear_Foot Rear_Leg04
planeAlignerCenter Rear_Foot
Rear_Toe1_01 Rear_Foot
Rear_Toe2_01 Rear_Foot
Rear_Toe3_01 Rear_Foot
planeLockWeightCenter planeAlignerCenter
Rear_Toe1_02 Rear_Toe1_01
Rear_Toe1_03 Rear_Toe1_02
Rear_Toe2_02 Rear_Toe2_01
Rear_Toe2_03 Rear_Toe2_02
Rear_Toe3_02 Rear_Toe3_01
Rear_Toe3_03 Rear_Toe3_02
Back_Bone Spine1
Head Spine1
Motor_Bone Back_Bone
Ping_Mechanism Back_Bone
BN_LookIK Head
bottomMouth Head
L_Mouth01 Head
L_mouthFront Head
mouthGun Head
R_Mouth01 Head
R_mouthFront Head
TopMouth Head
weapon_bone Head
[BasePosition]
#SegmentName Tx, Ty, Tz, Rx, Ry, Rz, BoneLength
Pinger_Root 0.000000 0.000000 0.000000 -90.000000 0.000000 0.000000 10.000000 
Pelvis 0.000000 0.000000 0.000000 0.000000 0.000000 0.000000 10.000000 
L_Hip 0.000000 0.000000 0.000000 0.000000 0.000000 0.000000 10.000000 
R_Hip 0.000000 0.000000 0.000000 0.000000 0.000000 0.000000 10.000000 
Rear_Leg01 0.000000 0.000000 0.000000 0.000000 0.000000 0.000000 10.000000 
Spine1 0.000000 0.000000 0.000000 0.000000 0.000000 0.000000 10.000000 
L_Leg01 0.000000 0.000000 0.000000 0.000000 0.000000 0.000000 10.000000 
L_Leg02 0.000000 0.000000 0.000000 0.000000 0.000000 0.000000 10.000000 
L_Leg03 0.000000 0.000000 0.000000 0.000000 0.000000 0.000000 10.000000 
L_Foot 0.000000 0.000000 0.000000 0.000000 0.000000 0.000000 10.000000 
L_Toe1_01 0.000000 0.000000 0.000000 0.000000 0.000000 0.000000 10.000000 
L_Toe2_01 0.000000 0.000000 0.000000 0.000000 0.000000 0.000000 10.000000 
L_Toe3_01 0.000000 0.000000 0.000000 0.000000 0.000000 0.000000 10.000000 
planeAlignerLeft 0.000000 0.000000 0.000000 0.000000 0.000000 0.000000 10.000000 
L_Toe1_02 0.000000 0.000000 0.000000 0.000000 0.000000 0.000000 10.000000 
L_Toe1_03 0.000000 0.000000 0.000000 0.000000 0.000000 0.000000 10.000000 
L_Toe2_02 0.000000 0.000000 0.000000 0.000000 0.000000 0.000000 10.000000 
L_Toe2_03 0.000000 0.000000 0.000000 0.000000 0.000000 0.000000 10.000000 
L_Toe3_02 0.000000 0.000000 0.000000 0.000000 0.000000 0.000000 10.000000 
L_Toe3_03 0.000000 0.000000 0.000000 0.000000 0.000000 0.000000 10.000000 
planeLockWeightLeft 0.000000 0.000000 0.000000 0.000000 0.000000 0.000000 10.000000 
R_Leg01 0.000000 0.000000 0.000000 0.000000 0.000000 0.000000 10.000000 
R_Leg02 0.000000 0.000000 0.000000 0.000000 0.000000 0.000000 10.000000 
R_Leg03 0.000000 0.000000 0.000000 0.000000 0.000000 0.000000 10.000000 
R_Foot 0.000000 0.000000 0.000000 0.000000 0.000000 0.000000 10.000000 
planeAlignerRight 0.000000 0.000000 0.000000 0.000000 0.000000 0.000000 10.000000 
R_Toe1_01 0.000000 0.000000 0.000000 0.000000 0.000000 0.000000 10.000000 
R_Toe2_01 0.000000 0.000000 0.000000 0.000000 0.000000 0.000000 10.000000 
R_Toe3_01 0.000000 0.000000 0.000000 0.000000 0.000000 0.000000 10.000000 
planeLockWeightRight 0.000000 0.000000 0.000000 0.000000 0.000000 0.000000 10.000000 
R_Toe1_02 0.000000 0.000000 0.000000 0.000000 0.000000 0.000000 10.000000 
R_Toe1_03 0.000000 0.000000 0.000000 0.000000 0.000000 0.000000 10.000000 
R_Toe2_02 0.000000 0.000000 0.000000 0.000000 0.000000 0.000000 10.000000 
R_Toe2_03 0.000000 0.000000 0.000000 0.000000 0.000000 0.000000 10.000000 
R_Toe3_02 0.000000 0.000000 0.000000 0.000000 0.000000 0.000000 10.000000 
R_Toe3_03 0.000000 0.000000 0.000000 0.000000 0.000000 0.000000 10.000000 
Rear_Leg02 0.000000 0.000000 0.000000 0.000000 0.000000 0.000000 10.000000 
Rear_Leg03 0.000000 0.000000 0.000000 0.000000 0.000000 0.000000 10.000000 
Rear_Leg04 0.000000 0.000000 0.000000 0.000000 0.000000 0.000000 10.000000 
Rear_Foot 0.000000 0.000000 0.000000 0.000000 0.000000 0.000000 10.000000 
planeAlignerCenter 0.000000 0.000000 0.000000 0.000000 0.000000 0.000000 10.000000 
Rear_Toe1_01 0.000000 0.000000 0.000000 0.000000 0.000000 0.000000 10.000000 
Rear_Toe2_01 0.000000 0.000000 0.000000 0.000000 0.000000 0.000000 10.000000 
Rear_Toe3_01 0.000000 0.000000 0.000000 0.000000 0.000000 0.000000 10.000000 
planeLockWeightCenter 0.000000 0.000000 0.000000 0.000000 0.000000 0.000000 10.000000 
Rear_Toe1_02 0.000000 0.000000 0.000000 0.000000 0.000000 0.000000 10.000000 
Rear_Toe1_03 0.000000 0.000000 0.000000 0.000000 0.000000 0.000000 10.000000 
Rear_Toe2_02 0.000000 0.000000 0.000000 0.000000 0.000000 0.000000 10.000000 
Rear_Toe2_03 0.000000 0.000000 0.000000 0.000000 0.000000 0.000000 10.000000 
Rear_Toe3_02 0.000000 0.000000 0.000000 0.000000 0.000000 0.000000 10.000000 
Rear_Toe3_03 0.000000 0.000000 0.000000 0.000000 0.000000 0.000000 10.000000 
Back_Bone 0.000000 0.000000 0.000000 0.000000 0.000000 0.000000 10.000000 
Head 0.000000 0.000000 0.000000 0.000000 0.000000 0.000000 10.000000 
Motor_Bone 0.000000 0.000000 0.000000 0.000000 0.000000 0.000000 10.000000 
Ping_Mechanism 0.000000 0.000000 0.000000 0.000000 0.000000 0.000000 10.000000 
BN_LookIK 0.000000 0.000000 0.000000 0.000000 0.000000 0.000000 10.000000 
bottomMouth 0.000000 0.000000 0.000000 0.000000 0.000000 0.000000 10.000000 
L_Mouth01 0.000000 0.000000 0.000000 0.000000 0.000000 0.000000 10.000000 
L_mouthFront 0.000000 0.000000 0.000000 0.000000 0.000000 0.000000 10.000000 
mouthGun 0.000000 0.000000 0.000000 0.000000 0.000000 0.000000 10.000000 
R_Mouth01 0.000000 0.000000 0.000000 0.000000 0.000000 0.000000 10.000000 
R_mouthFront 0.000000 0.000000 0.000000 0.000000 0.000000 0.000000 10.000000 
TopMouth 0.000000 0.000000 0.000000 0.000000 0.000000 0.000000 10.000000 
weapon_bone 0.000000 0.000000 0.000000 0.000000 0.000000 0.000000 10.000000 
#Beginning of Data. Separated by tabs
#Fr	Tx	Ty	Tz	Rx	Ry	Rz	SF
[Pinger_Root]
246 0.000000 0.000000 0.000000 -0.000075 -0.000000 -0.000020 0.000000
247 0.000000 0.000000 0.000000 -0.000075 -0.000000 -0.000020 0.000000
248 0.000000 0.000000 0.000000 -0.000075 -0.000000 -0.000020 0.000000
[Pelvis]
246 -35.322826 1302.044922 4259.512207 92.543579 -83.973930 -100.038376 4454.213379
247 -34.190636 1302.050171 4282.942871 92.552559 -83.192978 -99.790779 4476.617188
248 -33.020409 1302.056274 4308.912598 92.586273 -82.412117 -99.567596 4501.462891
[L_Hip]
246 5.766392 125.831482 872.656799 162.196106 -51.764610 116.615349 881.701050
247 5.766392 125.831482 872.656799 161.472672 -49.989510 118.312645 881.701050
248 5.766392 125.831482 872.656799 160.944885 -48.459858 119.717087 881.701050
[R_Hip]
246 5.765438 125.836372 -872.654907 34.727917 56.407150 121.243210 881.699829
247 5.765438 125.836372 -872.654907 35.868996 54.553898 122.649094 881.699829
248 5.765438 125.836372 -872.654907 36.727592 52.950333 123.761597 881.699829
[Rear_Leg01]
246 -192.298416 -925.602966 -0.001907 172.645111 6.878996 -126.045471 945.367432
247 -192.298416 -925.602966 -0.001907 172.611877 6.692493 -125.609955 945.367432
248 -192.298416 -925.602966 -0.001907 172.810745 6.734334 -123.041512 945.367432
[Spine1]
246 290.604584 5.007505 0.000477 6.093664 -0.512481 31.152592 290.647736
247 290.604584 5.007505 0.000477 6.449689 -0.548270 32.041161 290.647736
248 290.604584 5.007505 0.000477 6.701685 -0.568029 32.667854 290.647736
[L_Leg01]
246 761.932007 -0.002384 -0.069261 43.585590 -8.717465 -38.944820 761.932068
247 761.932007 -0.002384 -0.069261 42.040119 -8.184275 -36.699913 761.932068
248 761.932007 -0.002384 -0.069261 40.670773 -7.738462 -34.805725 761.932068
[L_Leg02]
246 1441.140503 -0.000954 -0.000715 3.912378 0.304844 -124.519020 1441.140503
247 1441.140503 -0.000954 -0.000715 3.839616 0.250833 -125.637764 1441.140503
248 1441.140503 -0.000954 -0.000715 3.722511 0.189000 -126.352982 1441.140503
[L_Leg03]
246 1686.963989 -0.000715 -0.000954 -0.063908 0.032864 127.640556 1686.963989
247 1686.963989 -0.000715 -0.000954 -0.060823 0.031307 126.830399 1686.963989
248 1686.963989 -0.000715 -0.000954 -0.057716 0.029795 126.020172 1686.963989
[L_Foot]
246 3041.570068 -30.715107 11.297464 1.741830 20.891506 57.618820 3041.746094
247 3041.570068 -30.715107 11.297464 1.782780 20.120689 58.251453 3041.746094
248 3041.570068 -30.715107 11.297464 1.814557 19.349457 58.880363 3041.746094
[L_Toe1_01]
246 -188.216690 -224.732346 -21.137953 94.484612 -8.304988 -177.329773 293.899567
247 -188.216690 -224.732346 -21.137953 94.459694 -7.922912 -177.154694 293.899567
248 -188.216690 -224.732346 -21.137953 94.435959 -7.540769 -176.979965 293.899567
[L_Toe2_01]
246 200.746536 -219.926590 148.838394 -89.748192 -28.238617 -51.741444 332.896027
247 200.746536 -219.926590 148.838394 -89.791382 -27.783360 -51.989582 332.896027
248 200.746536 -219.926590 148.838394 -89.836617 -27.328257 -52.237076 332.896027
[L_Toe3_01]
246 188.832520 -219.859131 -191.078659 -99.437531 13.193654 -65.743073 347.140900
247 188.832520 -219.859131 -191.078659 -99.652008 13.364614 -66.372963 347.140900
248 188.832520 -219.859131 -191.078659 -99.868530 13.533261 -67.003937 347.140900
[planeAlignerLeft]
246 0.812531 -811.448792 -0.314951 0.000000 -90.000000 -90.001900 811.449280
247 0.812531 -811.448792 -0.314951 0.000000 -90.000000 -90.001900 811.449280
248 0.812531 -811.448792 -0.314951 0.000000 -90.000000 -90.001900 811.449280
[L_Toe1_02]
246 413.761139 0.000477 0.000000 0.000203 -25.410625 -0.000182 413.761139
247 413.761139 0.000477 0.000000 0.000203 -25.410625 -0.000182 413.761139
248 413.761139 0.000477 0.000000 0.000203 -25.410625 -0.000182 413.761139
[L_Toe1_03]
246 464.317322 0.000358 -0.000089 0.005902 67.059875 0.005902 464.317322
247 464.317322 0.000358 -0.000089 0.006087 67.766403 0.006087 464.317322
248 464.317322 0.000358 -0.000089 0.006218 68.241417 0.006218 464.317322
[L_Toe2_02]
246 342.235809 -0.000477 0.000238 0.001196 -67.846573 0.001196 342.235809
247 342.235809 -0.000477 0.000238 0.001197 -67.570145 0.001197 342.235809
248 342.235809 -0.000477 0.000238 0.001197 -67.293732 0.001197 342.235809
[L_Toe2_03]
246 420.210846 -0.000715 0.000000 0.008937 74.905441 0.008937 420.210846
247 420.210846 -0.000715 0.000000 0.008586 74.286560 0.008586 420.210846
248 420.210846 -0.000715 0.000000 0.008262 73.667747 0.008262 420.210846
[L_Toe3_02]
246 329.270111 0.000954 0.000000 0.001179 -79.610786 0.001179 329.270111
247 329.270111 0.000954 0.000000 0.001179 -79.140358 0.001179 329.270111
248 329.270111 0.000954 0.000000 0.001179 -78.669830 0.001179 329.270111
[L_Toe3_03]
246 439.137451 -0.001907 0.000954 -179.993439 82.081406 -179.989929 439.137451
247 439.137451 -0.001907 0.000954 -179.991272 83.708206 -179.987778 439.137451
248 439.137451 -0.001907 0.000954 -179.987625 85.334991 -179.984131 439.137451
[planeLockWeightLeft]
246 -0.000954 0.000238 -0.000305 -0.011826 -0.004376 0.005620 0.001029
247 -0.000954 0.000238 -0.000305 -0.011826 -0.004376 0.005620 0.001029
248 -0.000954 0.000238 -0.000305 -0.011826 -0.004376 0.005620 0.001029
[R_Leg01]
246 761.455627 -0.001907 -0.000358 113.383202 9.434663 50.816463 761.455688
247 761.455627 -0.001907 -0.000358 114.469910 10.631285 49.115425 761.455688
248 761.455627 -0.001907 -0.000358 115.532730 11.828724 47.700668 761.455688
[R_Leg02]
246 1441.140625 0.000000 -0.000238 -0.779620 -0.097823 -108.297844 1441.140625
247 1441.140625 0.000000 -0.000238 -0.814798 -0.111129 -109.592567 1441.140625
248 1441.140625 0.000000 -0.000238 -0.850872 -0.109487 -110.425583 1441.140625
[R_Leg03]
246 1686.963989 0.000954 0.001431 0.080091 -0.041891 131.893890 1686.963989
247 1686.963989 0.000954 0.001431 0.080060 -0.041949 131.976959 1686.963989
248 1686.963989 0.000954 0.001431 0.080096 -0.041881 131.879501 1686.963989
[R_Foot]
246 3041.560059 -30.531288 -11.204481 19.966358 -25.725971 47.540722 3041.734131
247 3041.560059 -30.531288 -11.204481 19.355078 -25.865232 50.005116 3041.734131
248 3041.560059 -30.531288 -11.204481 18.737055 -25.980690 52.473820 3041.734131
[planeAlignerRight]
246 -0.635147 -812.270569 -0.364304 0.000000 -89.960434 -90.005180 812.270874
247 -0.635147 -812.270569 -0.364304 0.000000 -89.960434 -90.005180 812.270874
248 -0.635147 -812.270569 -0.364304 0.000000 -89.960434 -90.005180 812.270874
[R_Toe1_01]
246 -188.383347 -224.864899 21.052242 92.448334 -8.910981 -173.603912 294.101532
247 -188.383347 -224.864899 21.052242 92.206001 -8.865195 -173.762100 294.101532
248 -188.383347 -224.864899 21.052242 91.963585 -8.820071 -173.920471 294.101532
[R_Toe2_01]
246 200.637817 -220.002121 -148.787384 -99.423996 20.569614 -49.808407 332.857574
247 200.637817 -220.002121 -148.787384 -100.142914 20.170303 -53.428349 332.857574
248 200.637817 -220.002121 -148.787384 -100.831764 19.729301 -57.033211 332.857574
[R_Toe3_01]
246 188.606735 -220.092957 191.126343 -81.895836 -25.909481 -52.325016 347.192566
247 188.606735 -220.092957 191.126343 -81.523186 -25.556875 -56.162052 347.192566
248 188.606735 -220.092957 191.126343 -81.178558 -25.182617 -59.985073 347.192566
[planeLockWeightRight]
246 -0.000477 0.000000 0.000000 -0.011823 -0.004379 -0.000027 0.000477
247 -0.000477 0.000000 0.000000 -0.011823 -0.004379 -0.000027 0.000477
248 -0.000477 0.000000 0.000000 -0.011823 -0.004379 -0.000027 0.000477
[R_Toe1_02]
246 413.762085 0.000477 -0.000119 0.001409 -22.751232 0.001409 413.762085
247 413.762085 0.000477 -0.000119 0.001406 -23.188290 0.001406 413.762085
248 413.762085 0.000477 -0.000119 0.001402 -23.625359 0.001402 413.762085
[R_Toe1_03]
246 464.317810 0.000000 0.001088 0.013328 79.896545 0.013328 464.317810
247 464.317810 0.000000 0.001088 0.010928 77.664398 0.010928 464.317810
248 464.317810 0.000000 0.001088 0.009260 75.431290 0.009260 464.317810
[R_Toe2_02]
246 342.234741 -0.000954 0.000238 0.001190 -71.109070 0.001190 342.234741
247 342.234741 -0.000954 0.000238 0.001191 -70.549759 0.001191 342.234741
248 342.234741 -0.000954 0.000238 0.001192 -69.845573 0.001192 342.234741
[R_Toe2_03]
246 420.210846 0.000715 -0.000268 0.017716 82.403351 0.017716 420.210846
247 420.210846 0.000715 -0.000268 0.014619 80.789703 0.014619 420.210846
248 420.210846 0.000715 -0.000268 0.012443 79.175896 0.012443 420.210846
[R_Toe3_02]
246 329.270355 -0.000477 -0.000954 0.001180 -78.203232 0.001180 329.270355
247 329.270355 -0.000477 -0.000954 0.001180 -77.792130 0.001180 329.270355
248 329.270355 -0.000477 -0.000954 0.001181 -77.290665 0.001181 329.270355
[R_Toe3_03]
246 439.137939 0.000238 0.001431 -179.983551 86.382042 -179.980057 439.137939
247 439.137939 0.000238 0.001431 -179.970596 87.885941 -179.967102 439.137939
248 439.137939 0.000238 0.001431 -179.893753 89.389946 -179.890259 439.137939
[Rear_Leg02]
246 1162.777710 -0.029802 0.005960 -2.075438 3.553015 -116.761078 1162.777710
247 1162.777710 -0.029802 0.005960 -1.993265 2.796049 -124.881653 1162.777710
248 1162.777710 -0.029802 0.005960 -2.004797 1.877584 -139.465729 1162.777710
[Rear_Leg03]
246 607.192505 -0.013351 -0.073195 0.010350 -0.005387 71.349388 607.192505
247 607.192505 -0.013351 -0.073195 0.010275 -0.005531 72.940086 607.192505
248 607.192505 -0.013351 -0.073195 0.010124 -0.005801 75.977448 607.192505
[Rear_Leg04]
246 995.874512 -0.020504 -0.011921 -0.041179 -0.016530 73.618324 995.874573
247 995.874512 -0.020504 -0.011921 -0.041735 -0.015074 77.643471 995.874573
248 995.874512 -0.020504 -0.011921 -0.042532 -0.018860 86.327034 995.874573
[Rear_Foot]
246 3096.176270 -0.067472 -0.041425 66.080925 86.240631 -106.063423 3096.176270
247 3096.176270 -0.067472 -0.041425 62.309658 86.973595 -104.960999 3096.176270
248 3096.176270 -0.067472 -0.041425 53.947571 87.796646 -102.625854 3096.176270
[planeAlignerCenter]
246 0.350077 0.966311 -838.790894 0.000009 0.000003 -179.999985 838.791565
247 0.350077 0.966311 -838.790894 0.000009 0.000003 -179.999985 838.791565
248 0.350077 0.966311 -838.790894 0.000009 0.000003 -179.999985 838.791565
[Rear_Toe1_01]
246 0.653352 83.966492 -371.173737 1.962833 47.292332 93.307503 380.553192
247 0.653352 83.966492 -371.173737 1.667504 47.843525 92.717682 380.553192
248 0.653352 83.966492 -371.173737 1.513410 46.900299 92.322556 380.553192
[Rear_Toe2_01]
246 178.200760 -294.826019 -362.060547 -5.778638 43.772961 -65.372810 499.765686
247 178.200760 -294.826019 -362.060547 -4.702332 46.442913 -63.902569 499.765686
248 178.200760 -294.826019 -362.060547 -3.206998 50.555748 -62.472122 499.765686
[Rear_Toe3_01]
246 -153.359680 -308.780914 -362.060852 1.382278 41.854271 -115.682968 499.952881
247 -153.359680 -308.780914 -362.060852 0.446790 46.072044 -116.672279 499.952881
248 -153.359680 -308.780914 -362.060852 -0.910721 50.560833 -118.069794 499.952881
[planeLockWeightCenter]
246 -0.000062 0.000238 0.000000 -0.011814 -0.004373 -0.000015 0.000246
247 -0.000062 0.000238 0.000000 -0.011814 -0.004373 -0.000015 0.000246
248 -0.000062 0.000238 0.000000 -0.011814 -0.004373 -0.000015 0.000246
[Rear_Toe1_02]
246 379.707825 0.194073 0.000477 -0.000799 -23.551880 0.011965 379.707855
247 379.707825 0.194073 0.000477 0.004061 -28.363153 0.010887 379.707855
248 379.707825 0.194073 0.000477 -0.000305 -32.551201 0.006970 379.707855
[Rear_Toe1_03]
246 500.129700 0.165701 0.000119 0.000990 28.463955 0.017268 500.129761
247 500.129700 0.165701 0.000119 0.001035 39.392559 0.012639 500.129761
248 500.129700 0.165701 0.000119 -0.003860 57.254696 -0.000215 500.129761
[Rear_Toe2_02]
246 340.494507 0.000238 -0.000954 0.001186 -73.546059 0.001186 340.494507
247 340.494507 0.000238 -0.000954 0.001187 -72.948509 0.001187 340.494507
248 340.494507 0.000238 -0.000954 0.001193 -69.090630 0.001193 340.494507
[Rear_Toe2_03]
246 433.103577 0.000000 0.000238 0.009430 75.701698 0.009430 433.103546
247 433.103577 0.000000 0.000238 0.008829 74.721901 0.008829 433.103546
248 433.103577 0.000000 0.000238 0.006341 68.669113 0.006341 433.103546
[Rear_Toe3_02]
246 340.494141 -0.000358 -0.000477 0.002513 -64.738808 -0.005484 340.494171
247 340.494141 -0.000358 -0.000477 0.008441 -67.666862 -0.009613 340.494171
248 340.494141 -0.000358 -0.000477 0.001193 -69.625244 0.001191 340.494171
[Rear_Toe3_03]
246 433.103577 0.001431 -0.000238 -0.000619 62.501492 -0.004221 433.103546
247 433.103577 0.001431 -0.000238 -0.001042 66.543152 -0.004613 433.103546
248 433.103577 0.001431 -0.000238 0.006584 69.466660 0.006584 433.103546
[Back_Bone]
246 1312.175781 -701.934692 0.000954 1.224949 0.081819 -88.818291 1488.125488
247 1312.175781 -701.934692 0.000954 1.308743 0.089293 -89.038200 1488.125488
248 1312.175781 -701.934692 0.000954 1.348020 0.091049 -89.141144 1488.125488
[Head]
246 1406.159424 809.709290 0.001431 0.001992 0.001241 26.145798 1622.625488
247 1406.159424 809.709290 0.001431 0.001993 0.001240 26.224480 1622.625488
248 1406.159424 809.709290 0.001431 0.003927 -0.034702 25.706858 1622.625488
[Motor_Bone]
246 1158.364380 -417.834747 0.000477 -0.095385 0.076104 -105.915703 1231.419434
247 1158.364380 -417.834747 0.000477 -0.095385 0.076104 -105.915718 1231.419434
248 1158.364380 -417.834747 0.000477 -0.095385 0.076104 -105.915718 1231.419434
[Ping_Mechanism]
246 1180.183350 -415.052460 -6.979551 0.000103 -0.000053 82.120995 1251.059570
247 1176.767334 -413.075989 -7.797497 0.000103 -0.000053 82.120995 1247.186401
248 1173.351196 -411.099426 -8.615468 0.000103 -0.000053 82.120995 1243.314087
[BN_LookIK]
246 193.241119 1380.371704 -0.002861 0.000000 89.965736 -31.038179 1393.832153
247 193.241119 1380.371704 -0.002861 0.000000 89.965736 -31.038179 1393.832153
248 193.241119 1380.371704 -0.002861 0.000000 89.965736 -31.038179 1393.832153
[bottomMouth]
246 -435.092926 615.759399 -0.000954 -0.000022 0.000016 73.527184 753.966492
247 -435.092926 615.759399 -0.000954 -0.000022 0.000016 73.527184 753.966492
248 -435.092926 615.759399 -0.000954 -0.000022 0.000016 73.527184 753.966492
[L_Mouth01]
246 554.440979 7.658243 838.222046 150.204178 23.759130 109.605339 1005.027161
247 554.440979 7.658243 838.222046 150.204178 23.759130 109.605339 1005.027161
248 554.440979 7.658243 838.222046 150.204178 23.759130 109.605339 1005.027161
[L_mouthFront]
246 551.629089 934.514771 339.150421 0.000081 2.804060 79.119301 1136.941284
247 551.629089 934.514771 339.150421 0.000081 2.804060 79.119301 1136.941284
248 551.629089 934.514771 339.150421 0.000081 2.804060 79.119301 1136.941284
[mouthGun]
246 55.332661 1627.420898 0.000000 0.000023 0.000009 -11.038128 1628.361328
247 55.332661 1627.420898 0.000000 0.000023 0.000009 -11.038128 1628.361328
248 55.332661 1627.420898 0.000000 0.000023 0.000009 -11.038128 1628.361328
[R_Mouth01]
246 554.442383 7.659197 -838.223938 29.795891 -23.759109 109.605331 1005.029541
247 554.442383 7.659197 -838.223938 29.795891 -23.759109 109.605331 1005.029541
248 554.442383 7.659197 -838.223938 29.795891 -23.759109 109.605331 1005.029541
[R_mouthFront]
246 551.629089 934.514282 -339.151367 0.000029 -2.803930 79.119133 1136.941162
247 551.629089 934.514282 -339.151367 0.000029 -2.803930 79.119133 1136.941162
248 551.629089 934.514282 -339.151367 0.000029 -2.803930 79.119133 1136.941162
[TopMouth]
246 461.269867 -56.106091 -0.008583 -0.000059 -0.000268 92.025169 464.669525
247 461.269867 -56.106091 -0.008583 -0.000059 -0.000268 92.025169 464.669525
248 461.269867 -56.106091 -0.008583 -0.000059 -0.000268 92.025169 464.669525
[weapon_bone]
246 -987.239868 1448.372803 0.001431 0.000000 89.965736 -31.038221 1752.833740
247 -987.239868 1448.372803 0.001431 0.000000 89.965736 -31.038221 1752.833740
248 -987.239868 1448.372803 0.001431 0.000000 89.965736 -31.038221 1752.833740
